<svg xmlns="http://www.w3.org/2000/svg" xmlns:xlink="http://www.w3.org/1999/xlink" viewBox="0 0 800 721.38"><defs><style>.cls-1{fill:none;}.cls-2{isolation:isolate;}.cls-3{opacity:0.1;fill:url(#linear-gradient);}.cls-4{fill:#b01a2d;}.cls-5{fill:#660f1a;}.cls-6{fill:#bababa;}.cls-7{opacity:0.15;mix-blend-mode:multiply;}.cls-8{fill:#fff;}.cls-9{clip-path:url(#clip-path);}.cls-10{fill:#d12035;}.cls-11{fill:#3c3b6e;}.cls-12{font-size:46.88px;fill:#ffc2cf;font-family: "Raleway", "Helvetica Neue", Helvetica, Arial, sans-serif;font-weight:400;}.cls-13{letter-spacing:-0.01em;}</style><linearGradient id="linear-gradient" x1="224.8" y1="229.46" x2="516.83" y2="521.49" gradientUnits="userSpaceOnUse"><stop offset="0" stop-color="#1d1d1b"/><stop offset="1" stop-color="#1d1d1b" stop-opacity="0"/></linearGradient><clipPath id="clip-path"><circle class="cls-1" cx="318.19" cy="228.35" r="166.75"/></clipPath></defs><title>Asset 1</title><g class="cls-2"><g id="Layer_2" data-name="Layer 2"><g id="Objects"><path class="cls-3" d="M800,387.53a7.45,7.45,0,0,0-1.25-1.25,47226936.22,47226936.22,0,0,1-2.58-2.58,47226797.46,47226797.46,0,0,1-2.58-2.58,12179.17,12179.17,0,0,0-3.88-3.88,141681223.1,141681223.1,0,0,1-3.88-3.88,70840195.73,70840195.73,0,0,1-3.88-3.88,7.58,7.58,0,0,0-1.29-1.29,14627.65,14627.65,0,0,1-2.58-2.58,43873,43873,0,0,1-3.88-3.88,7.59,7.59,0,0,0-1.29-1.29,47226936.22,47226936.22,0,0,1-2.58-2.58,47226936.22,47226936.22,0,0,1-2.58-2.58,7.59,7.59,0,0,0-1.29-1.29,14627.65,14627.65,0,0,1-2.58-2.58,108710.89,108710.89,0,0,1-3.88-3.88,47226891.18,47226891.18,0,0,1-3.88-3.88,70840195.73,70840195.73,0,0,1-3.88-3.88,14630.67,14630.67,0,0,0-3.88-3.88,7.6,7.6,0,0,0-1.29-1.29,47226936.22,47226936.22,0,0,1-2.58-2.58,47226936.22,47226936.22,0,0,1-2.58-2.58,7.58,7.58,0,0,0-1.29-1.29,47226936.22,47226936.22,0,0,1-2.58-2.58,14635.21,14635.21,0,0,0-3.88-3.88,74370.32,74370.32,0,0,1-2.58-2.58A74493.12,74493.12,0,0,1,729,316.5a47226797.46,47226797.46,0,0,1-2.58-2.58,21952.13,21952.13,0,0,1-3.88-3.88,43873,43873,0,0,1-3.88-3.88,47226936.22,47226936.22,0,0,1-2.58-2.58,7.59,7.59,0,0,0-1.29-1.29,47226866.84,47226866.84,0,0,1-2.58-2.58,14623.12,14623.12,0,0,1-2.58-2.58,43941.05,43941.05,0,0,1-3.88-3.88,112889.32,112889.32,0,0,1-3.88-3.88,75324.75,75324.75,0,0,1-2.58-2.58,21952.13,21952.13,0,0,1-3.88-3.88A43913.81,43913.81,0,0,1,691.5,279a141680810.48,141680810.48,0,0,0-3.88-3.88,141680810.47,141680810.47,0,0,0-3.88-3.88,14636.72,14636.72,0,0,1-2.58-2.58,103926.3,103926.3,0,0,1-3.88-3.88,47226936.22,47226936.22,0,0,1-2.58-2.58,76047,76047,0,0,1-2.58-2.58,76175.16,76175.16,0,0,1-2.58-2.58,14630.67,14630.67,0,0,0-3.88-3.88,47226797.46,47226797.46,0,0,0-2.58-2.58,47226936.22,47226936.22,0,0,1-2.58-2.58,47226870.49,47226870.49,0,0,1-2.58-2.58,47226936.22,47226936.22,0,0,0-2.58-2.58,14618.59,14618.59,0,0,0-2.58-2.58,14627.65,14627.65,0,0,1-2.58-2.58,38458.39,38458.39,0,0,0-2.58-2.58,47226866.84,47226866.84,0,0,0-2.58-2.58,76914,76914,0,0,1-2.58-2.58,12296.81,12296.81,0,0,1-2.58-2.58,14627.65,14627.65,0,0,0-2.58-2.58,47226866.84,47226866.84,0,0,1-2.58-2.58,7.59,7.59,0,0,0-1.29-1.29,47226936.22,47226936.22,0,0,1-2.58-2.58,47226936.22,47226936.22,0,0,1-2.58-2.58,18028.4,18028.4,0,0,0-2.58-2.58,12316,12316,0,0,1-2.58-2.58,47226866.84,47226866.84,0,0,1-2.58-2.58,38966.09,38966.09,0,0,0-2.58-2.58,47226936.22,47226936.22,0,0,0-2.58-2.58,14627.65,14627.65,0,0,1-2.58-2.58,14632.18,14632.18,0,0,0-2.58-2.58,47226866.84,47226866.84,0,0,0-2.58-2.58,7.59,7.59,0,0,0-1.29-1.29,7.59,7.59,0,0,0-1.29-1.29,47226936.22,47226936.22,0,0,1-2.58-2.58,7.59,7.59,0,0,0-1.29-1.29,14627.65,14627.65,0,0,1-2.58-2.58,17980.35,17980.35,0,0,0-2.58-2.58,78714.24,78714.24,0,0,1-2.58-2.58,47226866.84,47226866.84,0,0,1-2.58-2.58,39454.38,39454.38,0,0,0-2.58-2.58,14632.18,14632.18,0,0,1-2.58-2.58,14627.65,14627.65,0,0,0-2.58-2.58,47226936.22,47226936.22,0,0,1-2.58-2.58,7.59,7.59,0,0,0-1.29-1.29A47226866.84,47226866.84,0,0,1,576.5,164a7.58,7.58,0,0,0-1.29-1.29,47226866.84,47226866.84,0,0,1-2.58-2.58,14632.18,14632.18,0,0,0-2.58-2.58,14636.72,14636.72,0,0,1-2.58-2.58,39853.92,39853.92,0,0,0-2.58-2.58,47226866.84,47226866.84,0,0,1-2.58-2.58,79907.41,79907.41,0,0,1-2.58-2.58,12364.41,12364.41,0,0,1-2.58-2.58,14636.72,14636.72,0,0,0-2.58-2.58,47226939.87,47226939.87,0,0,1-2.58-2.58,47226866.84,47226866.84,0,0,0-2.58-2.58,47226936.22,47226936.22,0,0,1-2.58-2.58,14627.65,14627.65,0,0,1-2.58-2.58,10724.42,10724.42,0,0,0-2.58-2.58,47226866.84,47226866.84,0,0,1-2.58-2.58,80451.95,80451.95,0,0,1-2.58-2.58,7.59,7.59,0,0,0-1.29-1.29,7.58,7.58,0,0,0-1.29-1.29,7.58,7.58,0,0,0-1.29-1.29,7.59,7.59,0,0,0-1.29-1.29,7.6,7.6,0,0,0-1.29-1.29,7.62,7.62,0,0,0-1.29-1.29,7.61,7.61,0,0,0-1.29-1.29,7.59,7.59,0,0,0-1.29-1.29,7.59,7.59,0,0,0-1.29-1.29,7.59,7.59,0,0,0-1.29-1.29,7.59,7.59,0,0,0-1.29-1.29,7.59,7.59,0,0,0-1.29-1.29,7.58,7.58,0,0,0-1.29-1.29,7.59,7.59,0,0,0-1.29-1.29,7.59,7.59,0,0,0-1.29-1.29,7.61,7.61,0,0,0-1.29-1.29,7.63,7.63,0,0,0-1.29-1.29,7.61,7.61,0,0,0-1.29-1.29,7.59,7.59,0,0,0-1.29-1.29,7.59,7.59,0,0,0-1.29-1.29,7.59,7.59,0,0,0-1.29-1.29A7.59,7.59,0,0,0,508,95.54a7.58,7.58,0,0,0-1.29-1.29A7.58,7.58,0,0,0,505.43,93a7.59,7.59,0,0,0-1.29-1.29,7.6,7.6,0,0,0-1.29-1.29,7.63,7.63,0,0,0-1.29-1.29,7.61,7.61,0,0,0-1.29-1.29A7.6,7.6,0,0,0,499,86.5a7.59,7.59,0,0,0-1.29-1.29,7.59,7.59,0,0,0-1.29-1.29,7.59,7.59,0,0,0-1.29-1.29,7.59,7.59,0,0,0-1.29-1.29A7.58,7.58,0,0,0,492.51,80a7.58,7.58,0,0,0-1.29-1.29,7.59,7.59,0,0,0-1.29-1.29,7.6,7.6,0,0,0-1.29-1.29,7.63,7.63,0,0,0-1.29-1.29A7.61,7.61,0,0,0,486,73.58c-1.62-2-4.2-3.17-7.57-3.23a7.94,7.94,0,0,0-1.26-1.25,7.84,7.84,0,0,0-1.29-1.29,7.84,7.84,0,0,0-1.29-1.29,7.83,7.83,0,0,0-1.29-1.29A7.83,7.83,0,0,0,472,63.92a7.83,7.83,0,0,0-1.29-1.29,7.82,7.82,0,0,0-1.29-1.29A7.82,7.82,0,0,0,468.17,60a7.82,7.82,0,0,0-1.29-1.29,7.83,7.83,0,0,0-1.29-1.29,7.84,7.84,0,0,0-1.29-1.29A7.84,7.84,0,0,0,463,54.88a7.84,7.84,0,0,0-1.29-1.29,7.83,7.83,0,0,0-1.29-1.29A7.83,7.83,0,0,0,459.13,51a7.83,7.83,0,0,0-1.29-1.29,7.83,7.83,0,0,0-1.29-1.29,7.82,7.82,0,0,0-1.29-1.29A7.82,7.82,0,0,0,454,45.83a7.82,7.82,0,0,0-1.29-1.29,7.83,7.83,0,0,0-1.29-1.29c-2.92-3.65-8.34-4.17-15-.63a23.07,23.07,0,0,1-2.26,1,8.82,8.82,0,0,0-.86-.8,8.94,8.94,0,0,0-1.29-1.29,9,9,0,0,0-1.29-1.29A8.93,8.93,0,0,0,429.35,39a8.92,8.92,0,0,0-1.29-1.29,8.94,8.94,0,0,0-1.29-1.29,9,9,0,0,0-1.29-1.29,8.94,8.94,0,0,0-1.29-1.29,8.92,8.92,0,0,0-1.29-1.29,8.94,8.94,0,0,0-1.29-1.29,8.94,8.94,0,0,0-1.29-1.29A8.94,8.94,0,0,0,419,28.64a8.94,8.94,0,0,0-1.29-1.29,9,9,0,0,0-1.29-1.29,8.94,8.94,0,0,0-1.29-1.29,8.94,8.94,0,0,0-1.29-1.29,9,9,0,0,0-1.29-1.29,9,9,0,0,0-1.29-1.29c-3.53-4.34-9.57-4.24-16.12,1.22a18.33,18.33,0,0,1-8.69,4.25c-.25-.26-.5-.53-.77-.75a11.1,11.1,0,0,0-1.29-1.29A11.1,11.1,0,0,0,383.09,23a11.11,11.11,0,0,0-1.29-1.29,11.1,11.1,0,0,0-1.29-1.29,11.1,11.1,0,0,0-1.29-1.29,11.13,11.13,0,0,0-1.29-1.29,11.15,11.15,0,0,0-1.29-1.29,11.13,11.13,0,0,0-1.29-1.29A11.13,11.13,0,0,0,374,14a11.12,11.12,0,0,0-1.29-1.29,11.1,11.1,0,0,0-1.29-1.29,11.1,11.1,0,0,0-1.29-1.29,11.1,11.1,0,0,0-1.29-1.29,11.1,11.1,0,0,0-1.29-1.29c-4.42-5.23-11.11-4.4-17,3.11-4.36,5.55-9.78,7.69-14.74,6.58l-.4-.35a15.11,15.11,0,0,0-1.29-1.29,15.07,15.07,0,0,0-1.29-1.29A15.07,15.07,0,0,0,331.56,13a15.06,15.06,0,0,0-1.29-1.29A15.11,15.11,0,0,0,329,10.39a15.15,15.15,0,0,0-1.29-1.29A15.16,15.16,0,0,0,326.4,7.8a15.2,15.2,0,0,0-1.29-1.29,15.24,15.24,0,0,0-1.29-1.29,15.25,15.25,0,0,0-1.29-1.29c-5.77-6.47-13.2-4.9-17.92,4.71-4.81,9.8-13.78,12.15-21.36,6.42-.22-.22-.44-.4-.66-.61-.43-.46-.86-.89-1.29-1.29s-.86-.89-1.29-1.29-.86-.89-1.29-1.29c-7.88-8.51-16.49-6.16-19.48,5.69-3.11,12.32-13.82,16-23.79,8.11s-18.53-3.91-19,8.79S206.23,51.65,194.83,46s-18.94,0-16.77,12.56-6.12,20.21-18.44,17.08-18.52,4-13.79,15.77-1.79,21-14.48,20.54-17.3,7.73-10.22,18.29,2.62,20.95-9.9,23.1-15.3,11.16-6.19,20S112,193.33,100.17,198C89.74,202.2,87.88,210,95,216.45a17.3,17.3,0,0,0,1.29,1.29A17.3,17.3,0,0,0,97.6,219a17.3,17.3,0,0,0,1.29,1.29,17.18,17.18,0,0,0,1.29,1.29,17.12,17.12,0,0,0,1.29,1.29,17.18,17.18,0,0,0,1.29,1.29,17.24,17.24,0,0,0,1.29,1.29,17.18,17.18,0,0,0,1.29,1.29l.14.15c2.4,5.86.14,12.41-6.87,17.1-8.25,5.52-9.34,12.42-3.75,17.27a12.52,12.52,0,0,0,1.29,1.29,12.52,12.52,0,0,0,1.29,1.29,12.51,12.51,0,0,0,1.29,1.29,12.52,12.52,0,0,0,1.29,1.29,12.52,12.52,0,0,0,1.29,1.29,12.49,12.49,0,0,0,1.29,1.29,12.46,12.46,0,0,0,1.29,1.29,12.45,12.45,0,0,0,1.29,1.29,12.45,12.45,0,0,0,1.29,1.29,12.48,12.48,0,0,0,1.29,1.29,12.52,12.52,0,0,0,1.29,1.29,12.52,12.52,0,0,0,1.29,1.29,12.55,12.55,0,0,0,1.29,1.29l.26.3a13.06,13.06,0,0,1-.35,2.58l0,.12a14.83,14.83,0,0,1-.95,2.67l0,.08a18,18,0,0,1-1.48,2.53l-.36.5a22.54,22.54,0,0,1-2.06,2.46,23.92,23.92,0,0,0-2.38,2.86h-43v29.6H0l31.72,50L0,421.88H2.11l-.82,1.29H3.4l-.82,1.29H4.7l-.82,1.29H6L5.17,427H7.28l-.82,1.29H8.57l-.82,1.29H9.86L9,430.92h2.11l-.82,1.29h2.11l-.82,1.29h2.11l-.82,1.29H15l-.82,1.29h2.11l-.82,1.29h2.11l-.82,1.29h2.11L18.09,440H20.2l-.82,1.29h2.11l-.82,1.29h2.11L22,443.84h2.11l-.82,1.29h2.11l-.82,1.29h2.11l-.82,1.29H28L27.14,449h2.11l-.82,1.29h2.11l-.82,1.29h2.11L31,452.89h2.11l-.82,1.29h2.11l-.82,1.29h2.11l-.82,1.29H37l-.82,1.29h2.11l-.82,1.29h2.11l-.82,1.29h2.11l-.82,1.29h2.11l-.82,1.29h2.11l-.82,1.29h2.11l-.82,1.29H46l-.82,1.29h2.11l-.82,1.29h2.11l-.82,1.29h2.11L49.1,471h2.11l-.82,1.29h2.11l-.82,1.29H53.8L53,474.86h2.11l-.82,1.29h2.11l-.82,1.29h2.11l-.82,1.29H59L58.15,480h2.11l-.82,1.29h2.11l-.82,1.29h2.11L62,483.9h2.11l-.82,1.29h2.11l-.82,1.29h2.11l-.82,1.29H68l-.82,1.29H69.3l-.82,1.29H70.6l-.82,1.29h2.11l-.82,1.29h2.11l-.82,1.29h2.11l-.82,1.29h2.11l-.82,1.29h2.11l-.82,1.29h2.11l-.82,1.29h2.11l-.82,1.29h2.11L80.11,502h2.11l-.82,1.29h2.11l-.82,1.29h2.11L84,505.87H86.1l-.82,1.29h2.11l-.82,1.29h2.11l-.82,1.29H90L89.16,511h2.11l-.82,1.29h2.11l-.82,1.29h2.11L93,514.91h2.11l-.82,1.29h2.11l-.82,1.29h2.11l-.82,1.29H99l-.82,1.29h2.11l-.82,1.29h2.11l-.82,1.29h2.11l-.82,1.29h2.11l-.82,1.29h2.11l-.82,1.29h2.11l-.82,1.29h2.11l-.82,1.29h2.11l-.82,1.29h2.11l-.82,1.29h2.11l-.82,1.29h2.11l-.82,1.29h2.11l-.82,1.29h2.11l-.82,1.29h2.11l-.82,1.29h2.11l-.82,1.29h2.11l-.82,1.29H121l-.82,1.29h2.11l-.82,1.29h2.11l-.82,1.29h2.11l-.82,1.29h2.11l-.82,1.29h2.11l-.82,1.29h2.11l-.82,1.29H130l-.82,1.29h2.11l-.82,1.29h2.11l-.82,1.29h2.11l-.82,1.29h2.11l-.82,1.29h2.11l-.82,1.29h2.11l-.82,1.29h2.11l-.82,1.29h2.11l-.82,1.29h2.11l-.82,1.29H143l-.82,1.29h2.11l-.82,1.29h2.11l-.82,1.29h2.11l-.82,1.29h2.11l-.82,1.29h2.11l-.82,1.29h2.11l-.82,1.29H152l-.82,1.29h2.11l-.82,1.29h2.11l-.82,1.29h2.11l-.82,1.29h2.11l-.82,1.29h2.11l-.82,1.29h2.11l-.82,1.29H161l-.82,1.29h2.11l-.82,1.29h2.11l-.82,1.29h2.11L164.1,586h2.11l-.82,1.29h2.11l-.82,1.29h2.11l-.82,1.29h2.11l-.82,1.29h2.11l-.82,1.29h2.11l-.82,1.29H174l-.82,1.29h2.11l-.82,1.29h2.11l-.82,1.29h2.11L177,598.9h2.11l-.82,1.29h2.11l-.82,1.29h2.11l-.82,1.29H183l-.82,1.29h2.11l-.82,1.29h2.11l-.82,1.29h2.11l-.82,1.29h2.11l-.82,1.29h2.11l-.82,1.29h2.11l-.82,1.29h2.11l-.82,1.29h2.11l-.82,1.29h2.11l-.82,1.29h2.11l-.82,1.29h2.11l-.82,1.29h2.11l-.82,1.29h2.11l-.82,1.29h2.11l-.82,1.29h2.11l-.82,1.29h2.11l-.82,1.29H205l-.82,1.29h2.11l-.82,1.29h2.11l-.82,1.29h2.11l-.82,1.29h2.11l-.82,1.29h2.11l-.82,1.29h2.11l-.82,1.29H214l-.82,1.29h2.11l-.82,1.29h2.11l-.82,1.29h2.11l-.82,1.29h2.11l-.82,1.29h2.11l-.82,1.29h2.11l-.82,1.29h2.11l-.82,1.29h2.11l-.82,1.29h2.11l-.82,1.29h2.11l-.82,1.29h2.11l-.82,1.29h2.11l-.82,1.29h2.11l-.82,1.29h2.11l-.82,1.29h2.11l-.82,1.29h2.11l-.82,1.29H236l-.82,1.29h2.11l-.82,1.29h2.11l-.82,1.29h2.11l-.82,1.29h2.11l-.82,1.29h2.11l-.82,1.29h2.11l-.82,1.29H245l-.82,1.29h2.11l-.82,1.29h2.11l-.82,1.29h2.11l-.82,1.29h2.11l-.82,1.29h2.11l-.82,1.29h2.11l-.82,1.29h2.11l-.82,1.29h2.11l-.82,1.29h2.11l-.82,1.29H258l-.82,1.29h2.11l-.82,1.29h2.11l-.82,1.29h2.11l-.82,1.29h2.11l-.82,1.29h2.11l-.82,1.29h2.11l-.82,1.29H267l-.82,1.29h2.11l-.82,1.29h2.11l-.82,1.29h2.11l-.82,1.29h2.11l-.82,1.29h2.11l-.82,1.29h2.11l-.82,1.29H276l-.82,1.29h2.11l-.82,1.29h2.11l-.82,1.29h2.11L279.1,701h2.11l-.82,1.29h2.11l-.82,1.29h2.11l-.82,1.29h2.11l-.82,1.29h2.11l-.82,1.29h2.11l-.82,1.29H289l-.82,1.29h2.11l-.82,1.29h2.11l-.82,1.29h2.11L292,713.9h2.11l-.82,1.29h2.11l-.82,1.29h2.11l-.82,1.29H298l-.82,1.29h2.11l-.82,1.29h2.11l-.65,1H800Z"/><polygon class="cls-4" points="478.19 421.88 629.46 421.88 597.74 371.84 629.46 321.8 478.19 321.8 478.19 421.88"/><polygon class="cls-5" points="568.13 392.28 478.19 421.88 478.19 392.28 568.13 392.28"/><polygon class="cls-4" points="151.27 421.88 0 421.88 31.72 371.84 0 321.8 151.27 321.8 151.27 421.88"/><path class="cls-6" d="M371.13,14.68c3.46,12.22,14.26,15.57,24,7.43s18.42-4.43,19.25,8.25,10.71,18.19,21.94,12.26,18.93-.5,17.12,12.07,6.69,20,18.91,16.55S491,74.68,486.6,86.6s2.39,21,15.06,20.13,17.5,7.25,10.73,18-2,21,10.55,22.81,15.61,10.72,6.75,19.82-6.35,20.14,5.57,24.51,13,13.74,2.49,20.81-10.4,18.36.36,25.13,9.9,16.15-1.89,20.86-14,15.81-4.88,24.66,6.33,17.85-6.18,20-17,12.55-9.9,23.1,2.47,18.78-10.22,18.29-19.21,8.75-14.48,20.54-1.48,18.88-13.79,15.76-20.61,4.56-18.44,17.08-5.37,18.17-16.77,12.55-21.11.18-21.59,12.87-9,16.65-19,8.78-20.69-4.21-23.79,8.11-12.3,14.41-20.43,4.64-19.36-8.42-25,3-15,11.53-20.95.3-17.19-12.26-25-2.27-17.09,8.16-20.55-4.06-14.26-15.57-24-7.43S222.83,439,222,426.33,211.28,408.14,200,414.07s-18.93.51-17.12-12.06-6.69-20-18.91-16.55-18.63-3.45-14.23-15.37-2.39-21-15.06-20.12-17.51-7.25-10.73-18,2-21-10.54-22.81-15.62-10.72-6.76-19.83,6.36-20.14-5.57-24.51-13-13.73-2.49-20.8,10.4-18.37-.36-25.14-9.9-16.15,1.9-20.86,14-15.81,4.87-24.66-6.33-17.85,6.19-20,17-12.55,9.9-23.1-2.48-18.78,10.22-18.29,19.21-8.75,14.48-20.54,1.48-18.89,13.79-15.77,20.61-4.57,18.44-17.08S183.43,40.42,194.83,46s21.11-.18,21.59-12.87,9-16.65,19-8.79,20.69,4.21,23.79-8.11,12.3-14.4,20.43-4.64,19.36,8.42,25-3,15-11.53,20.95-.29,17.18,12.27,25,2.28S367.68,2.46,371.13,14.68Z"/><circle class="cls-7" cx="318.19" cy="228.35" r="200.21"/><circle class="cls-8" cx="318.19" cy="228.35" r="185.74"/><g class="cls-9"><rect class="cls-10" x="53.39" y="376.15" width="668.72" height="26.7"/><rect class="cls-8" x="53.39" y="349.45" width="668.72" height="26.69"/><rect class="cls-10" x="53.39" y="322.76" width="668.72" height="26.69"/><rect class="cls-8" x="53.39" y="296.06" width="668.72" height="26.7"/><rect class="cls-10" x="53.39" y="268.3" width="668.72" height="26.7"/><rect class="cls-8" x="53.39" y="241.6" width="668.72" height="26.69"/><rect class="cls-10" x="53.39" y="214.9" width="668.72" height="26.7"/><rect class="cls-8" x="53.39" y="188.21" width="668.72" height="26.69"/><rect class="cls-10" x="53.39" y="161.52" width="668.72" height="26.69"/><rect class="cls-8" x="53.39" y="134.83" width="668.72" height="26.69"/><rect class="cls-10" x="53.39" y="108.14" width="668.72" height="26.7"/><rect class="cls-10" x="53.39" y="54.75" width="668.72" height="26.69"/><rect class="cls-8" x="53.39" y="81.44" width="668.72" height="26.69"/><rect class="cls-11" x="53.39" y="54.75" width="269.16" height="186.85"/><polygon class="cls-8" points="89.95 70.96 92.73 76.59 98.94 77.5 94.45 81.88 95.51 88.08 89.95 85.16 84.39 88.08 85.45 81.88 80.95 77.5 87.17 76.59 89.95 70.96"/><polygon class="cls-8" points="128.77 70.96 131.54 76.59 137.76 77.5 133.26 81.88 134.32 88.08 128.77 85.16 123.2 88.08 124.26 81.88 119.76 77.5 125.99 76.59 128.77 70.96"/><polygon class="cls-8" points="167.58 70.96 170.35 76.59 176.58 77.5 172.08 81.88 173.15 88.08 167.58 85.16 162.01 88.08 163.07 81.88 158.58 77.5 164.8 76.59 167.58 70.96"/><polygon class="cls-8" points="206.39 70.96 209.17 76.59 215.4 77.5 210.89 81.88 211.95 88.08 206.39 85.16 200.83 88.08 201.89 81.88 197.4 77.5 203.61 76.59 206.39 70.96"/><polygon class="cls-8" points="245.21 70.96 247.98 76.59 254.2 77.5 249.7 81.88 250.77 88.08 245.21 85.16 239.64 88.08 240.71 81.88 236.2 77.5 242.42 76.59 245.21 70.96"/><polygon class="cls-8" points="284.02 70.96 286.8 76.59 293.02 77.5 288.52 81.88 289.58 88.08 284.02 85.16 278.46 88.08 279.52 81.88 275.02 77.5 281.24 76.59 284.02 70.96"/><polygon class="cls-8" points="110.82 88.07 113.59 93.7 119.82 94.61 115.32 98.99 116.38 105.19 110.82 102.26 105.25 105.19 106.32 98.99 101.81 94.61 108.04 93.7 110.82 88.07"/><polygon class="cls-8" points="149.63 88.07 152.41 93.7 158.63 94.61 154.13 98.99 155.19 105.19 149.63 102.26 144.07 105.19 145.13 98.99 140.64 94.61 146.85 93.7 149.63 88.07"/><polygon class="cls-8" points="188.44 88.07 191.22 93.7 197.44 94.61 192.94 98.99 194 105.19 188.44 102.26 182.88 105.19 183.94 98.99 179.44 94.61 185.66 93.7 188.44 88.07"/><polygon class="cls-8" points="227.26 88.07 230.04 93.7 236.25 94.61 231.76 98.99 232.82 105.19 227.26 102.26 221.69 105.19 222.76 98.99 218.26 94.61 224.48 93.7 227.26 88.07"/><polygon class="cls-8" points="266.07 88.07 268.85 93.7 275.07 94.61 270.57 98.99 271.63 105.19 266.07 102.26 260.51 105.19 261.57 98.99 257.07 94.61 263.29 93.7 266.07 88.07"/><polygon class="cls-8" points="89.95 105.17 92.73 110.8 98.94 111.71 94.45 116.1 95.51 122.29 89.95 119.36 84.39 122.29 85.45 116.1 80.95 111.71 87.17 110.8 89.95 105.17"/><polygon class="cls-8" points="128.77 105.17 131.54 110.8 137.76 111.71 133.26 116.1 134.32 122.29 128.77 119.36 123.2 122.29 124.26 116.1 119.76 111.71 125.99 110.8 128.77 105.17"/><polygon class="cls-8" points="167.58 105.17 170.35 110.8 176.58 111.71 172.08 116.1 173.15 122.29 167.58 119.36 162.01 122.29 163.07 116.1 158.58 111.71 164.8 110.8 167.58 105.17"/><polygon class="cls-8" points="206.39 105.17 209.17 110.8 215.4 111.71 210.89 116.1 211.95 122.29 206.39 119.36 200.83 122.29 201.89 116.1 197.4 111.71 203.61 110.8 206.39 105.17"/><polygon class="cls-8" points="245.21 105.17 247.98 110.8 254.2 111.71 249.7 116.1 250.77 122.29 245.21 119.36 239.64 122.29 240.71 116.1 236.2 111.71 242.42 110.8 245.21 105.17"/><polygon class="cls-8" points="284.02 105.17 286.8 110.8 293.02 111.71 288.52 116.1 289.58 122.29 284.02 119.36 278.46 122.29 279.52 116.1 275.02 111.71 281.24 110.8 284.02 105.17"/><polygon class="cls-8" points="110.82 122.28 113.59 127.91 119.82 128.81 115.32 133.2 116.38 139.39 110.82 136.47 105.25 139.39 106.32 133.2 101.81 128.81 108.04 127.91 110.82 122.28"/><polygon class="cls-8" points="149.63 122.28 152.41 127.91 158.63 128.81 154.13 133.2 155.19 139.39 149.63 136.47 144.07 139.39 145.13 133.2 140.64 128.81 146.85 127.91 149.63 122.28"/><polygon class="cls-8" points="188.44 122.28 191.22 127.91 197.44 128.81 192.94 133.2 194 139.39 188.44 136.47 182.88 139.39 183.94 133.2 179.44 128.81 185.66 127.91 188.44 122.28"/><polygon class="cls-8" points="227.26 122.28 230.04 127.91 236.25 128.81 231.76 133.2 232.82 139.39 227.26 136.47 221.69 139.39 222.76 133.2 218.26 128.81 224.48 127.91 227.26 122.28"/><polygon class="cls-8" points="266.07 122.28 268.85 127.91 275.07 128.81 270.57 133.2 271.63 139.39 266.07 136.47 260.51 139.39 261.57 133.2 257.07 128.81 263.29 127.91 266.07 122.28"/><polygon class="cls-8" points="89.95 139.39 92.73 145.02 98.94 145.92 94.45 150.31 95.51 156.5 89.95 153.57 84.39 156.5 85.45 150.31 80.95 145.92 87.17 145.02 89.95 139.39"/><polygon class="cls-8" points="128.77 139.39 131.54 145.02 137.76 145.92 133.26 150.31 134.32 156.5 128.77 153.57 123.2 156.5 124.26 150.31 119.76 145.92 125.99 145.02 128.77 139.39"/><polygon class="cls-8" points="167.58 139.39 170.35 145.02 176.58 145.92 172.08 150.31 173.15 156.5 167.58 153.57 162.01 156.5 163.07 150.31 158.58 145.92 164.8 145.02 167.58 139.39"/><polygon class="cls-8" points="206.39 139.39 209.17 145.02 215.4 145.92 210.89 150.31 211.95 156.5 206.39 153.57 200.83 156.5 201.89 150.31 197.4 145.92 203.61 145.02 206.39 139.39"/><polygon class="cls-8" points="245.21 139.39 247.98 145.02 254.2 145.92 249.7 150.31 250.77 156.5 245.21 153.57 239.64 156.5 240.71 150.31 236.2 145.92 242.42 145.02 245.21 139.39"/><polygon class="cls-8" points="284.02 139.39 286.8 145.02 293.02 145.92 288.52 150.31 289.58 156.5 284.02 153.57 278.46 156.5 279.52 150.31 275.02 145.92 281.24 145.02 284.02 139.39"/><polygon class="cls-8" points="110.82 156.48 113.59 162.12 119.82 163.02 115.32 167.41 116.38 173.6 110.82 170.68 105.25 173.6 106.32 167.41 101.81 163.02 108.04 162.12 110.82 156.48"/><polygon class="cls-8" points="149.63 156.48 152.41 162.12 158.63 163.02 154.13 167.41 155.19 173.6 149.63 170.68 144.07 173.6 145.13 167.41 140.64 163.02 146.85 162.12 149.63 156.48"/><polygon class="cls-8" points="188.44 156.48 191.22 162.12 197.44 163.02 192.94 167.41 194 173.6 188.44 170.68 182.88 173.6 183.94 167.41 179.44 163.02 185.66 162.12 188.44 156.48"/><polygon class="cls-8" points="227.26 156.48 230.04 162.12 236.25 163.02 231.76 167.41 232.82 173.6 227.26 170.68 221.69 173.6 222.76 167.41 218.26 163.02 224.48 162.12 227.26 156.48"/><polygon class="cls-8" points="266.07 156.48 268.85 162.12 275.07 163.02 270.57 167.41 271.63 173.6 266.07 170.68 260.51 173.6 261.57 167.41 257.07 163.02 263.29 162.12 266.07 156.48"/><polygon class="cls-8" points="89.95 173.59 92.73 179.23 98.94 180.13 94.45 184.51 95.51 190.71 89.95 187.78 84.39 190.71 85.45 184.51 80.95 180.13 87.17 179.23 89.95 173.59"/><polygon class="cls-8" points="128.77 173.59 131.54 179.23 137.76 180.13 133.26 184.51 134.32 190.71 128.77 187.78 123.2 190.71 124.26 184.51 119.76 180.13 125.99 179.23 128.77 173.59"/><polygon class="cls-8" points="167.58 173.59 170.35 179.23 176.58 180.13 172.08 184.51 173.15 190.71 167.58 187.78 162.01 190.71 163.07 184.51 158.58 180.13 164.8 179.23 167.58 173.59"/><polygon class="cls-8" points="206.39 173.59 209.17 179.23 215.4 180.13 210.89 184.51 211.95 190.71 206.39 187.78 200.83 190.71 201.89 184.51 197.4 180.13 203.61 179.23 206.39 173.59"/><polygon class="cls-8" points="245.21 173.59 247.98 179.23 254.2 180.13 249.7 184.51 250.77 190.71 245.21 187.78 239.64 190.71 240.71 184.51 236.2 180.13 242.42 179.23 245.21 173.59"/><polygon class="cls-8" points="284.02 173.59 286.8 179.23 293.02 180.13 288.52 184.51 289.58 190.71 284.02 187.78 278.46 190.71 279.52 184.51 275.02 180.13 281.24 179.23 284.02 173.59"/><polygon class="cls-8" points="89.95 207.8 92.73 213.44 98.94 214.34 94.45 218.72 95.51 224.92 89.95 222 84.39 224.92 85.45 218.72 80.95 214.34 87.17 213.44 89.95 207.8"/><polygon class="cls-8" points="128.77 207.8 131.54 213.44 137.76 214.34 133.26 218.72 134.32 224.92 128.77 222 123.2 224.92 124.26 218.72 119.76 214.34 125.99 213.44 128.77 207.8"/><polygon class="cls-8" points="167.58 207.8 170.35 213.44 176.58 214.34 172.08 218.72 173.15 224.92 167.58 222 162.01 224.92 163.07 218.72 158.58 214.34 164.8 213.44 167.58 207.8"/><polygon class="cls-8" points="206.39 207.8 209.17 213.44 215.4 214.34 210.89 218.72 211.95 224.92 206.39 222 200.83 224.92 201.89 218.72 197.4 214.34 203.61 213.44 206.39 207.8"/><polygon class="cls-8" points="245.21 207.8 247.98 213.44 254.2 214.34 249.7 218.72 250.77 224.92 245.21 222 239.64 224.92 240.71 218.72 236.2 214.34 242.42 213.44 245.21 207.8"/><polygon class="cls-8" points="284.02 207.8 286.8 213.44 293.02 214.34 288.52 218.72 289.58 224.92 284.02 222 278.46 224.92 279.52 218.72 275.02 214.34 281.24 213.44 284.02 207.8"/><polygon class="cls-8" points="110.82 190.7 113.59 196.33 119.82 197.24 115.32 201.62 116.38 207.81 110.82 204.89 105.25 207.81 106.32 201.62 101.81 197.24 108.04 196.33 110.82 190.7"/><polygon class="cls-8" points="149.63 190.7 152.41 196.33 158.63 197.24 154.13 201.62 155.19 207.81 149.63 204.89 144.07 207.81 145.13 201.62 140.64 197.24 146.85 196.33 149.63 190.7"/><polygon class="cls-8" points="188.44 190.7 191.22 196.33 197.44 197.24 192.94 201.62 194 207.81 188.44 204.89 182.88 207.81 183.94 201.62 179.44 197.24 185.66 196.33 188.44 190.7"/><polygon class="cls-8" points="227.26 190.7 230.04 196.33 236.25 197.24 231.76 201.62 232.82 207.81 227.26 204.89 221.69 207.81 222.76 201.62 218.26 197.24 224.48 196.33 227.26 190.7"/><polygon class="cls-8" points="266.07 190.7 268.85 196.33 275.07 197.24 270.57 201.62 271.63 207.81 266.07 204.89 260.51 207.81 261.57 201.62 257.07 197.24 263.29 196.33 266.07 190.7"/></g><path class="cls-7" d="M536.22,258.66c11.8-4.71,12.65-14.1,1.89-20.86s-10.92-18.07-.36-25.13,9.44-16.43-2.49-20.81-14.43-15.4-5.57-24.51,5.82-18-6.75-19.82-17.32-12.07-10.55-22.81,1.94-18.85-10.73-18S482.21,98.52,486.6,86.6s-2-18.83-14.24-15.36-20.73-4-18.91-16.55-5.88-18-17.12-12.07-21.11.42-21.94-12.26S404.9,14,395.14,22.11s-20.55,4.79-24-7.43S358.43.63,350.58,10.62s-19.12,9-25-2.28c-3-5.65-6.84-8.42-10.65-8.34V453.84c5.6,5.18,12.44,3.25,16.88-5.79,5.59-11.4,16.83-12.74,25-3s17.32,7.67,20.43-4.64,13.81-16,23.79-8.11,18.53,3.91,19-8.78,10.2-18.49,21.59-12.87,18.94,0,16.77-12.55,6.13-20.2,18.44-17.08,18.52-4,13.79-15.76,1.79-21,14.48-20.54,17.29-7.74,10.22-18.29-2.62-20.95,9.9-23.1,15.3-11.16,6.18-20S524.42,263.37,536.22,258.66Z"/><path class="cls-7" d="M106.68,289.34c-8.86,9.1-5.82,18,6.76,19.83S130.76,321.24,124,332s-1.94,18.84,10.73,18,19.45,8.2,15.06,20.12,2,18.84,14.23,15.37,20.73,4,18.91,16.55a23.55,23.55,0,0,0-.24,4.21H458.19a18.89,18.89,0,0,0,.13-8.12c-2.17-12.52,6.13-20.2,18.44-17.08s18.52-4,13.79-15.76,1.79-21,14.48-20.54,17.29-7.74,10.22-18.29-2.62-20.95,9.9-23.1,15.3-11.16,6.18-20a20.83,20.83,0,0,1-3.89-5.06H112C111.86,281.9,110.16,285.77,106.68,289.34Z"/><rect class="cls-10" x="61.33" y="292.2" width="506.89" height="100.08"/><polygon class="cls-5" points="61.33 392.28 151.27 421.88 151.27 392.28 61.33 392.28"/><text xmlns="http://www.w3.org/2000/svg" class="cls-12" transform="translate(118.46 355.95)">AMERICAN MADE</text></g></g></g></svg>