<?xml version="1.0" encoding="utf-8"?>
<!-- Generator: Adobe Illustrator 21.0.2, SVG Export Plug-In . SVG Version: 6.00 Build 0)  -->
<svg version="1.1" id="Capa_1" xmlns="http://www.w3.org/2000/svg" xmlns:xlink="http://www.w3.org/1999/xlink" x="0px" y="0px"
	 width="545.1px" height="545.1px" viewBox="0 0 545.1 545.1" style="enable-background:new 0 0 545.1 545.1;" xml:space="preserve"
	>
<style type="text/css">
	.st0{fill:none;stroke:#555555;stroke-width:2;stroke-miterlimit:10;}
	.st1{fill:none;stroke:#EEEEEE;stroke-width:20;stroke-miterlimit:10;}
</style>
<path class="st0" d="M198.2,344.6c-5,9.3-1.5,20.9,7.8,25.9c9.3,5,20.9,1.5,25.9-7.8l35.5-66.3c3.3-6.2,2.8-13.4-0.6-19l37.4-69.7
	l-16.9-9L250,268.4c-6.6,0.2-12.9,3.8-16.2,10L198.2,344.6L198.2,344.6z M372.5,181.6c2.5-4.6,3.7-11.3-0.9-13.8l-8.3-4.5
	c-3-1.6-4.4,1-5.7,3.3c-0.6,1.1-1.7,5.4-10.1,0.9c0,0,1.3-2.4,2.5-4.7c2.3-4.4,0.2-6.6-7.4-10.6l-8.4-4.5c-1.6-0.9-3.4-0.9-5.2-0.6
	c-14.9-7.7-55.4-22.3-82.6,28.4c25.9-16.7,42.3-16.6,50.7-14.5c-0.4,0.4-0.8,0.7-1,1.2l-13,24.2l33.5,18.5l8.7-16.2
	c8.4,4.5,8.6,4.3,10.8,0.1c1.2-2.3,2.4-4.4,2.4-4.4c8.4,4.5,6,6.8,5.5,7.7c-1.2,2.3-0.6,3.9,1.3,4.9l9.7,5.2
	c4.6,2.5,6.1,0.9,8.6-3.8L372.5,181.6z"/>
<circle class="st1" cx="272.5" cy="253.5" r="193.5"/>
</svg>
