<?xml version="1.0" encoding="utf-8"?>
<!-- Generator: Adobe Illustrator 21.0.2, SVG Export Plug-In . SVG Version: 6.00 Build 0)  -->
<svg version="1.1" id="Capa_1" xmlns="http://www.w3.org/2000/svg" xmlns:xlink="http://www.w3.org/1999/xlink" x="0px" y="0px"
	 width="545.1px" height="545.1px" viewBox="0 0 545.1 545.1" style="enable-background:new 0 0 545.1 545.1;" xml:space="preserve"
	>
<style type="text/css">
	.st0{fill:none;stroke:#EEEEEE;stroke-width:20;stroke-miterlimit:10;}
	.st1{fill:none;stroke:#555555;stroke-width:2;stroke-miterlimit:10;}
</style>
<circle class="st0" cx="272.5" cy="253.5" r="193.5"/>
<g>
	<g>
		<polygon class="st1" points="351.9,150 384.1,182.8 373.5,193.1 358.2,177.6 351.9,183.8 367.2,199.3 360.4,206 350.5,195.9 
			344.2,202.1 354.1,212.2 344.7,221.4 329.5,205.8 323.2,212 338.4,227.6 331.6,234.2 321.7,224.1 315.4,230.3 334.1,248.9 
			401.4,182.9 352.1,132.7 284.1,199.4 292.7,208.1 		"/>
		<polygon class="st1" points="256.4,285 268,296.7 259.3,305.2 242.4,288 236.2,294.1 253,311.3 246.2,318 234.7,306.3 
			228.4,312.5 239.9,324.2 230.6,333.4 213.7,316.2 207.4,322.4 224.3,339.6 217.5,346.3 205.9,334.5 199.6,340.7 211.2,352.4 
			202.7,360.7 170.6,327.9 242.3,257.6 233.6,248.9 153.3,327.8 202.6,378 283,299.4 262.7,278.8 		"/>
		<path class="st1" d="M253.3,180.3L253.3,180.3l-33-33.1l-38.9,38.9l33.1,33.1l0-0.1L317,321.5l63,27.7l-23.6-65.5L253.3,180.3z
			 M208.1,198.3l-12.2-12.2l24.4-24.4l12.2,12.2L208.1,198.3z M355.6,333l-35.3-15.4l-4.7-4.7l20.8,1.2l-3.5-14.5l15.3,2.7l0.2-19.8
			l3.4,3.4l13.5,37.4L355.6,333z"/>
	</g>
</g>
</svg>
